<svg xmlns="http://www.w3.org/2000/svg" xmlns:xlink="http://www.w3.org/1999/xlink" viewBox="0 0 29.06 26.81"><defs><style>.cls-1{fill:url(#linear-gradient);}</style><linearGradient id="linear-gradient" x1="2231.69" y1="13.41" x2="2260.75" y2="13.41" gradientTransform="matrix(-1, 0, 0, 1, 2260.75, 0)" gradientUnits="userSpaceOnUse"><stop offset="0" stop-color="#f89b29"/><stop offset="0.33" stop-color="#fa7142"/><stop offset="1" stop-color="#ff0f7b"/></linearGradient></defs><title>Asset 10</title><g id="Layer_2" data-name="Layer 2"><g id="Layer_1-2" data-name="Layer 1"><path class="cls-1" d="M16.31,0H9a.93.93,0,0,0-.84.56L.08,19.4a.92.92,0,0,0,.84,1.28H8a.93.93,0,0,0,.85-.57l2.26-5.46a.91.91,0,0,1,.85-.56h2.41a.94.94,0,0,1,.85.55l5,11.62a.94.94,0,0,0,.85.55h7.11A.91.91,0,0,0,29,25.54L23.62,12.61a.93.93,0,0,0-.85-.57H13.88A.92.92,0,0,1,13,10.76l4.12-9.48A.92.92,0,0,0,16.31,0Z"/></g></g></svg>