<svg width="1200" height="630" viewBox="0 0 1200 630" fill="none" xmlns="http://www.w3.org/2000/svg">
<rect width="1200" height="630" fill="white"/>
<path d="M348.342 312.201H388.772V326.891H348.342V312.201ZM366.022 283.731L344.702 347.951H327.672L356.402 262.931H380.192L409.052 347.951H392.152L370.572 283.731L369.142 276.451H367.452L366.022 283.731ZM414.414 288.151H461.214V307.131L435.994 328.711L429.364 333.131V334.821H461.214V347.951H414.414V328.061L439.504 305.831L446.004 302.841V301.151H414.414V288.151ZM509.199 310.641C509.199 307.087 508.115 304.271 505.949 302.191C503.869 300.024 501.139 298.941 497.759 298.941C494.292 298.941 491.432 300.067 489.179 302.321C486.925 304.487 485.799 307.347 485.799 310.901H483.589C483.589 303.881 485.539 297.901 489.439 292.961C493.339 287.934 498.409 285.421 504.649 285.421C510.369 285.421 515.179 287.717 519.079 292.311C522.979 296.904 524.929 302.537 524.929 309.211V347.951H509.199V310.641ZM485.799 288.151L481.769 303.621L485.799 305.051V347.951H470.069V258.641H485.799V288.151ZM549.61 330.401C549.61 332.567 550.434 334.171 552.08 335.211C553.727 336.251 555.85 336.771 558.45 336.771C562.264 336.771 565.34 335.687 567.68 333.521C570.02 331.354 571.19 328.581 571.19 325.201H573.79C573.79 332.827 571.884 338.981 568.07 343.661C564.257 348.341 559.23 350.681 552.99 350.681C547.444 350.681 542.85 349.077 539.21 345.871C535.57 342.577 533.75 338.374 533.75 333.261C533.75 328.581 535.137 324.897 537.91 322.211C540.684 319.437 545.06 317.184 551.04 315.451L571.19 309.861V320.001L556.37 324.161C551.864 325.461 549.61 327.541 549.61 330.401ZM587.05 347.951H571.19L575.61 333.001L571.19 331.051V308.431C571.19 305.657 570.237 303.447 568.33 301.801C566.51 300.154 564.04 299.331 560.92 299.331C557.627 299.331 554.94 300.371 552.86 302.451C550.867 304.444 549.697 307.044 549.35 310.251L533.75 308.171C534.79 301.497 537.737 296.037 542.59 291.791C547.444 287.544 553.64 285.421 561.18 285.421C568.807 285.421 575.004 287.501 579.77 291.661C584.624 295.821 587.05 300.934 587.05 307.001V347.951ZM597.91 288.151H613.64L609.35 303.361L613.64 305.051V347.951H597.91V288.151ZM628.98 301.931C624.82 301.931 621.224 303.187 618.19 305.701C615.157 308.214 613.64 311.377 613.64 315.191L611.43 310.901C611.43 303.707 613.164 297.987 616.63 293.741C620.184 289.407 624.864 287.241 630.67 287.241H635.74V301.931H628.98ZM641.676 271.901C641.676 269.474 642.586 267.351 644.406 265.531C646.226 263.711 648.349 262.801 650.776 262.801C653.289 262.801 655.412 263.711 657.146 265.531C658.966 267.351 659.876 269.474 659.876 271.901C659.876 274.414 658.966 276.581 657.146 278.401C655.412 280.221 653.289 281.131 650.776 281.131C648.349 281.131 646.226 280.221 644.406 278.401C642.586 276.581 641.676 274.414 641.676 271.901ZM643.106 288.151H658.836V347.951H643.106V288.151ZM695.238 262.931H761.538V277.621H736.188V347.951H720.458V277.621H695.238V262.931ZM770.44 288.151H786.17L781.88 303.361L786.17 305.051V347.951H770.44V288.151ZM801.51 301.931C797.35 301.931 793.753 303.187 790.72 305.701C787.686 308.214 786.17 311.377 786.17 315.191L783.96 310.901C783.96 303.707 785.693 297.987 789.16 293.741C792.713 289.407 797.393 287.241 803.2 287.241H808.27V301.931H801.51ZM829.415 330.401C829.415 332.567 830.238 334.171 831.885 335.211C833.532 336.251 835.655 336.771 838.255 336.771C842.068 336.771 845.145 335.687 847.485 333.521C849.825 331.354 850.995 328.581 850.995 325.201H853.595C853.595 332.827 851.688 338.981 847.875 343.661C844.062 348.341 839.035 350.681 832.795 350.681C827.248 350.681 822.655 349.077 819.015 345.871C815.375 342.577 813.555 338.374 813.555 333.261C813.555 328.581 814.942 324.897 817.715 322.211C820.488 319.437 824.865 317.184 830.845 315.451L850.995 309.861V320.001L836.175 324.161C831.668 325.461 829.415 327.541 829.415 330.401ZM866.855 347.951H850.995L855.415 333.001L850.995 331.051V308.431C850.995 305.657 850.042 303.447 848.135 301.801C846.315 300.154 843.845 299.331 840.725 299.331C837.432 299.331 834.745 300.371 832.665 302.451C830.672 304.444 829.502 307.044 829.155 310.251L813.555 308.171C814.595 301.497 817.542 296.037 822.395 291.791C827.248 287.544 833.445 285.421 840.985 285.421C848.612 285.421 854.808 287.501 859.575 291.661C864.428 295.821 866.855 300.934 866.855 307.001V347.951ZM905.959 326.631L917.659 288.151H934.689L915.449 347.951H892.049L872.809 288.151H889.709L901.539 326.631L902.839 333.911H904.659L905.959 326.631ZM954.594 322.211C954.941 326.977 956.414 330.617 959.014 333.131C961.614 335.644 965.167 336.901 969.674 336.901C973.054 336.901 975.871 336.077 978.124 334.431C980.464 332.697 981.937 330.357 982.544 327.411L997.884 329.751C996.411 336.251 993.117 341.364 988.004 345.091C982.977 348.817 976.867 350.681 969.674 350.681C959.967 350.681 952.341 347.777 946.794 341.971C941.334 336.077 938.604 328.017 938.604 317.791C938.604 307.737 941.247 299.807 946.534 294.001C951.821 288.107 959.057 285.161 968.244 285.161C977.431 285.161 984.667 288.107 989.954 294.001C995.241 299.807 997.884 307.477 997.884 317.011V322.211H954.594ZM954.854 311.551H981.894C981.894 307.824 980.594 304.791 977.994 302.451C975.394 300.024 972.144 298.811 968.244 298.811C964.431 298.811 961.354 299.937 959.014 302.191C956.761 304.357 955.374 307.477 954.854 311.551ZM1006.7 258.641H1022.43V347.951H1006.7V258.641ZM1081.59 332.351C1081.59 337.897 1079.47 342.404 1075.22 345.871C1071.06 349.337 1065.6 351.071 1058.84 351.071C1051.82 351.071 1045.84 349.207 1040.9 345.481C1035.96 341.754 1032.75 336.294 1031.28 329.101L1046.36 327.021C1048.01 334.561 1051.82 338.331 1057.8 338.331C1060.23 338.331 1062.13 337.724 1063.52 336.511C1064.99 335.297 1065.73 333.694 1065.73 331.701C1065.73 330.574 1065.47 329.621 1064.95 328.841C1064.43 327.974 1063.56 327.237 1062.35 326.631C1061.14 325.937 1060.05 325.417 1059.1 325.071C1058.23 324.724 1056.85 324.291 1054.94 323.771C1054.51 323.597 1054.16 323.467 1053.9 323.381C1051.3 322.687 1049.18 322.037 1047.53 321.431C1045.88 320.824 1043.98 319.957 1041.81 318.831C1039.64 317.617 1037.91 316.404 1036.61 315.191C1035.4 313.891 1034.31 312.201 1033.36 310.121C1032.49 308.041 1032.06 305.744 1032.06 303.231C1032.06 297.684 1034.05 293.307 1038.04 290.101C1042.11 286.807 1047.57 285.161 1054.42 285.161C1068.55 285.161 1077.39 291.704 1080.94 304.791L1065.73 307.781C1064.26 301.194 1060.88 297.901 1055.59 297.901C1053.16 297.901 1051.26 298.421 1049.87 299.461C1048.48 300.501 1047.79 301.887 1047.79 303.621C1047.79 305.614 1048.61 307.131 1050.26 308.171C1051.99 309.211 1054.59 310.251 1058.06 311.291C1058.32 311.377 1058.75 311.507 1059.36 311.681C1061.35 312.287 1062.87 312.764 1063.91 313.111C1064.95 313.457 1066.38 314.021 1068.2 314.801C1070.11 315.494 1071.54 316.187 1072.49 316.881C1073.53 317.487 1074.7 318.311 1076 319.351C1077.39 320.391 1078.43 321.517 1079.12 322.731C1079.81 323.944 1080.38 325.374 1080.81 327.021C1081.33 328.667 1081.59 330.444 1081.59 332.351Z" fill="#383838"/>
<rect x="82.5" y="205.5" width="193.917" height="218.14" rx="11.3566" fill="white" stroke="url(#paint0_linear_3268_122)" stroke-width="5"/>
<g filter="url(#filter0_d_3268_122)">
<path d="M187.183 250.243H155.375C153.779 250.243 152.342 251.305 151.715 252.933L116.602 344.265C115.472 347.199 117.406 350.455 120.262 350.455H151.076C152.691 350.455 154.14 349.374 154.76 347.713L164.577 321.261C165.192 319.6 166.646 318.519 168.261 318.519H178.775C180.371 318.519 181.808 319.58 182.435 321.208L204.078 377.494C204.705 379.128 206.147 380.183 207.738 380.183H238.659C241.497 380.183 243.425 376.966 242.337 374.04L218.973 311.341C218.359 309.686 216.904 308.605 215.295 308.605H176.604C173.736 308.605 171.809 305.329 172.95 302.396L190.838 256.446C191.979 253.513 190.051 250.237 187.183 250.237V250.243Z" fill="url(#paint1_linear_3268_122)"/>
</g>
<defs>
<filter id="filter0_d_3268_122" x="102.719" y="239.091" width="153.482" height="157.057" filterUnits="userSpaceOnUse" color-interpolation-filters="sRGB">
<feFlood flood-opacity="0" result="BackgroundImageFix"/>
<feColorMatrix in="SourceAlpha" type="matrix" values="0 0 0 0 0 0 0 0 0 0 0 0 0 0 0 0 0 0 127 0" result="hardAlpha"/>
<feOffset dy="2.40985"/>
<feGaussianBlur stdDeviation="6.7777"/>
<feComposite in2="hardAlpha" operator="out"/>
<feColorMatrix type="matrix" values="0 0 0 0 1 0 0 0 0 0.763333 0 0 0 0 0.715999 0 0 0 1 0"/>
<feBlend mode="normal" in2="BackgroundImageFix" result="effect1_dropShadow_3268_122"/>
<feBlend mode="normal" in="SourceGraphic" in2="effect1_dropShadow_3268_122" result="shape"/>
</filter>
<linearGradient id="paint0_linear_3268_122" x1="179.459" y1="203" x2="179.459" y2="426.14" gradientUnits="userSpaceOnUse">
<stop stop-color="#FC405E"/>
<stop offset="1" stop-color="#FFE6CD"/>
</linearGradient>
<linearGradient id="paint1_linear_3268_122" x1="242.651" y1="315.216" x2="116.276" y2="315.216" gradientUnits="userSpaceOnUse">
<stop stop-color="#F89B29"/>
<stop offset="0.33" stop-color="#FA7041"/>
<stop offset="1" stop-color="#FF0F7B"/>
</linearGradient>
</defs>
</svg>
